<svg width="296" height="298" viewBox="0 0 296 298" fill="none" xmlns="http://www.w3.org/2000/svg">
<path d="M288.5 140.5H263.894L274.925 129.47C277.855 126.541 277.855 121.792 274.926 118.864C271.997 115.935 267.248 115.934 264.32 118.863L242.681 140.5H206.312L222.494 123.108C225.315 120.076 225.144 115.331 222.111 112.508C220.868 111.352 219.336 110.706 217.766 110.547C216.814 110.5 196.271 110.544 196.271 110.544L220.315 86.5H250.5C254.643 86.5 258 83.143 258 79C258 74.857 254.643 71.5 250.5 71.5H235.314L253.004 53.81C255.933 50.88 255.933 46.132 253.004 43.202C250.074 40.274 245.16 40.274 242.23 43.202L224.167 61.1V45.5C224.167 41.357 220.81 38 216.667 38C212.524 38 209.167 41.357 209.167 45.5V76.101L184.33 101.105L183.915 78.46C183.914 78.424 183.95 78.39 183.949 78.354C183.914 76.53 183.245 74.713 181.879 73.295C179.006 70.313 174.101 70.225 171.118 73.101L155.167 88.327V53.107L176.637 31.803C179.566 28.873 179.649 24.125 176.72 21.196C173.79 18.268 168.917 18.268 165.988 21.196L155.167 31.892V7.5C155.167 3.357 151.81 0 147.667 0C143.524 0 140.167 3.357 140.167 7.5V31.893L129.637 21.197C126.707 18.269 122.043 18.269 119.113 21.197C116.184 24.127 116.059 28.875 118.988 31.804L140.167 53.108V88.529L123.991 73.054C120.982 70.207 116.321 70.336 113.471 73.343C112.396 74.479 111.788 75.863 111.557 77.298C111.415 77.881 111.354 78.486 111.356 79.109L111.268 100.338L86.168 75.394V45.5C86.168 41.357 82.811 38 78.668 38C74.525 38 71.168 41.357 71.168 45.5V60.394L54.142 43.202C51.212 40.274 46.548 40.274 43.618 43.202C40.689 46.132 40.731 50.88 43.66 53.81L61.392 71.5H45.5C41.357 71.5 38 74.857 38 79C38 83.143 41.357 86.5 45.5 86.5H76.392L101.136 111.244L78.079 112.075C74.058 112.221 70.555 115.51 70.516 119.493C70.512 119.605 70.167 119.718 70.167 119.83C70.167 119.833 70.167 119.837 70.167 119.841C70.167 119.849 70.512 119.858 70.512 119.865C70.557 121.74 71.467 123.601 72.907 125.023L88.748 140.5H54.025L32.387 118.862C29.457 115.934 24.709 115.934 21.78 118.862C18.851 121.792 18.851 126.54 21.78 129.469L32.81 140.499H7.5C3.357 140.499 0 143.856 0 147.999C0 152.142 3.357 155.499 7.5 155.499H32.52L21.78 166.239C18.851 169.169 18.851 173.917 21.78 176.846C23.245 178.31 25.165 179.042 27.084 179.042C29.003 179.042 30.923 178.31 32.388 176.846L53.734 155.5H88.761L73.508 171.894C70.687 174.926 70.858 179.671 73.891 182.494C75.335 183.838 77.168 184.503 78.997 184.503C79.031 184.503 79.065 184.498 79.1 184.498C79.122 184.498 79.144 184.501 79.165 184.501C79.183 184.501 79.202 184.501 79.22 184.501L101.225 184.376L76.101 209.5H45.5C41.357 209.5 38 212.857 38 217C38 221.143 41.357 224.5 45.5 224.5H61.101L43.702 241.899C40.773 244.829 40.773 249.577 43.702 252.506C45.167 253.97 47.087 254.702 49.006 254.702C50.925 254.702 52.678 253.97 54.143 252.506L71.168 235.315V250.5C71.168 254.643 74.525 258 78.668 258C82.811 258 86.168 254.643 86.168 250.5V220.315L111.613 195.037L112.59 219.427C112.738 223.473 116.107 226.733 120.122 226.652C121.486 226.625 122.966 226.187 124.434 225.109C125.497 224.328 140.168 209.297 140.168 209.297V244.682L119.197 265.819C116.267 268.748 116.351 273.497 119.279 276.426C120.744 277.891 122.704 278.623 124.624 278.623C126.543 278.623 128.317 277.891 129.781 276.427L140.168 265.895V290.5C140.168 294.643 143.525 298 147.668 298C151.811 298 155.168 294.643 155.168 290.5V265.19L166.572 276.427C168.037 277.891 170.04 278.623 171.959 278.623C173.878 278.623 175.84 277.891 177.304 276.427C180.233 273.497 180.087 268.749 177.158 265.82L155.168 243.975V208.275C155.168 208.275 168.897 221.171 171.064 223.251C173.231 225.331 175.006 226.501 177.589 226.501C177.604 226.501 177.619 226.501 177.635 226.501C181.777 226.501 185.115 222.897 185.09 218.755L184.784 195.059L209.168 219.61V250.5C209.168 254.643 212.525 258 216.668 258C220.811 258 224.168 254.643 224.168 250.5V234.609L242.232 252.506C243.697 253.97 245.699 254.702 247.619 254.702C249.538 254.702 251.499 253.97 252.964 252.506C255.893 249.576 255.914 244.828 252.985 241.899L235.605 224.5H250.5C254.643 224.5 258 221.143 258 217C258 212.857 254.643 209.5 250.5 209.5H220.606L194.864 183.758L217.923 182.927C218.005 182.924 218.085 182.911 218.166 182.906C218.196 182.904 218.226 182.901 218.256 182.898C222.233 182.579 225.293 179.189 225.148 175.162C225.061 172.738 223.828 170.631 221.993 169.325L208.138 155.5H242.973L264.318 176.846C265.783 178.311 267.702 179.043 269.622 179.043C271.541 179.043 273.461 178.311 274.925 176.847C277.855 173.918 277.855 169.169 274.926 166.241L264.186 155.501H288.5C292.643 155.501 296 152.144 296 148.001C296 143.858 292.643 140.5 288.5 140.5ZM199.795 125.483L185.823 140.5H166.316L181.318 125.498L199.795 125.483ZM169.21 95.784L169.566 115.786L155.167 130.101V109.16L169.21 95.784ZM126.263 95.865L140.167 109.188V129.393L126.242 115.385L126.263 95.865ZM95.862 126.444L115.624 125.732L130.392 140.5H110.093L95.862 126.444ZM96.246 169.477L109.25 155.5H130.101L116.26 169.341L96.246 169.477ZM126.863 201.599L126.009 180.557L140.167 166.316V187.92L126.863 201.599ZM169.819 201.264L155.167 187.786V165.607L169.609 179.966L169.819 201.264ZM199.991 168.564L180.377 169.27L166.607 155.5H186.899L199.991 168.564Z" fill="#F5F5F5"/>
</svg>
